<?xml version="1.0" encoding="UTF-8"?>
<svg id="icons_11" data-name="icons 11" xmlns="http://www.w3.org/2000/svg" xmlns:xlink="http://www.w3.org/1999/xlink" viewBox="0 0 500 500">
  <defs>
    <style>
      .cls-1 {
        fill: url(#Degradado_sin_nombre_92-4);
      }

      .cls-2 {
        fill: url(#Degradado_sin_nombre_92-3);
      }

      .cls-3 {
        fill: url(#Degradado_sin_nombre_92-2);
      }

      .cls-4 {
        fill: #fff;
      }

      .cls-5 {
        fill: url(#Degradado_sin_nombre_92);
      }
    </style>
    <linearGradient id="Degradado_sin_nombre_92" data-name="Degradado sin nombre 92" x1="146.75" y1="71.16" x2="353.25" y2="428.84" gradientUnits="userSpaceOnUse">
      <stop offset="0" stop-color="#9a60b5"/>
      <stop offset=".5" stop-color="#9d80fa"/>
      <stop offset="1" stop-color="#6f3dcc"/>
    </linearGradient>
    <linearGradient id="Degradado_sin_nombre_92-2" data-name="Degradado sin nombre 92" x1="135.12" y1="328.65" x2="223.57" y2="175.45" xlink:href="#Degradado_sin_nombre_92"/>
    <linearGradient id="Degradado_sin_nombre_92-3" data-name="Degradado sin nombre 92" x1="289.95" y1="319.83" x2="347.95" y2="219.38" xlink:href="#Degradado_sin_nombre_92"/>
    <linearGradient id="Degradado_sin_nombre_92-4" data-name="Degradado sin nombre 92" x1="307.25" y1="209.5" x2="329" y2="171.81" xlink:href="#Degradado_sin_nombre_92"/>
  </defs>
  <g>
    <rect class="cls-4" x="85.5" y="85.5" width="328.99" height="328.99" rx="61.21" ry="61.21"/>
    <path class="cls-5" d="M354.98,93.14c28.61,0,51.88,23.28,51.88,51.88v209.95c0,28.61-23.27,51.88-51.88,51.88h-209.95c-28.61,0-51.88-23.28-51.88-51.88v-209.95c0-28.61,23.28-51.88,51.88-51.88h209.95M354.98,81.87h-209.95c-34.74,0-63.16,28.42-63.16,63.16v209.95c0,34.74,28.42,63.16,63.16,63.16h209.95c34.74,0,63.16-28.42,63.16-63.16v-209.95c0-34.74-28.42-63.16-63.16-63.16h0Z"/>
  </g>
  <g>
    <path class="cls-3" d="M226.12,241.94c6.83-3.23,11.93-7.39,15.41-12.46,3.45-5.08,5.18-11.43,5.18-19.03,0-7.03-1.15-12.97-3.46-17.72-2.36-4.82-5.65-8.64-9.86-11.52-4.27-2.88-9.33-4.97-15.26-6.23-5.96-1.29-12.48-1.92-19.7-1.92h-71.2v151.02h73.2c6.77,0,13.37-.85,19.74-2.54,6.43-1.69,12.18-4.29,17.18-7.83,4.96-3.51,8.99-8.06,11.94-13.68,2.93-5.54,4.4-12.14,4.4-19.8,0-9.45-2.25-17.51-6.83-24.24-4.56-6.69-11.45-11.39-20.74-14.06ZM160.49,198.8h31.11c2.94,0,5.81.21,8.55.75,2.79.48,5.19,1.37,7.32,2.65,2.14,1.24,3.84,3,5.12,5.25,1.24,2.25,1.85,5.16,1.85,8.67,0,6.33-1.85,10.94-5.68,13.73-3.86,2.84-8.74,4.23-14.63,4.23h-33.65v-35.29ZM218.54,288.2c-1.34,2.55-3.18,4.56-5.4,6.03-2.22,1.52-4.86,2.55-7.83,3.2-2.93.65-6.04.95-9.33.95h-35.48v-41.59h36.15c7.16,0,12.98,1.65,17.34,4.96,4.36,3.36,6.55,8.88,6.55,16.67,0,3.97-.64,7.26-1.99,9.79Z"/>
    <path class="cls-2" d="M370.48,252.31c-1.98-7.77-5.15-14.7-9.61-20.75-4.46-6.07-10.13-10.91-17.05-14.49-6.94-3.63-15.05-5.41-24.3-5.41-8.38,0-15.94,1.49-22.8,4.45-6.86,2.97-12.75,7.04-17.72,12.19-4.96,5.13-8.73,11.24-11.45,18.32-2.67,7.06-4.04,14.7-4.04,22.87s1.32,16.26,3.93,23.31c2.64,7.09,6.34,13.12,11.1,18.22,4.89,5.08,10.7,8.98,17.66,11.76,6.96,2.75,14.71,4.14,23.32,4.14,12.36,0,22.97-2.83,31.66-8.51,8.8-5.66,15.25-15.05,19.5-28.22h-26.45c-1.02,3.39-3.67,6.64-8.02,9.69-4.39,3.05-9.63,4.58-15.69,4.58-8.42,0-14.92-2.21-19.42-6.6-4.51-4.39-7.44-12.58-7.44-21.22h78.91c.57-8.49-.12-16.59-2.09-24.35ZM293.66,257.72c.14-2.13.6-4.55,1.37-7.21.77-2.73,2.09-5.28,4.03-7.7,1.95-2.38,4.5-4.4,7.61-6.03,3.18-1.65,7.15-2.45,11.95-2.45,7.38,0,13.42,2.14,16.99,6.09,3.58,3.98,6.21,9.64,6.92,17.3h-48.87Z"/>
    <rect class="cls-1" x="287.52" y="183.2" width="61.22" height="14.9"/>
  </g>
</svg>