<?xml version="1.0" encoding="UTF-8"?>
<svg id="diamant_violet" data-name="diamant violet" xmlns="http://www.w3.org/2000/svg" viewBox="0 0 594.65 575.31">
  <defs>
    <style>
      .cls-1 {
        fill: #938fd1;
      }
    </style>
  </defs>
  <path class="cls-1" d="M222.72,139.67c28.67,0,51.91-23.24,51.91-51.91h12.08c0,28.67,23.24,51.91,51.91,51.91v12.08c-28.67,0-51.91,23.24-51.91,51.91h-12.08c0-28.67-23.24-51.91-51.91-51.91v-12.08Z"/>
  <path class="cls-1" d="M222.72,283.08c28.67,0,51.91-23.24,51.91-51.91h12.08c0,28.67,23.24,51.91,51.91,51.91v12.08c-28.67,0-51.91,23.24-51.91,51.91h-12.08c0-28.67-23.24-51.91-51.91-51.91v-12.08Z"/>
  <path class="cls-1" d="M222.72,426.5c28.67,0,51.91-23.24,51.91-51.91h12.08c0,28.67,23.24,51.91,51.91,51.91v12.08c-28.67,0-51.91,23.24-51.91,51.91h-12.08c0-28.67-23.24-51.91-51.91-51.91v-12.08Z"/>
</svg>