<?xml version="1.0" encoding="UTF-8"?>
<svg id="icons_1" data-name="icons 1" xmlns="http://www.w3.org/2000/svg" xmlns:xlink="http://www.w3.org/1999/xlink" viewBox="0 0 500 500">
  <defs>
    <style>
      .cls-1 {
        fill: url(#Degradado_sin_nombre_109);
      }

      .cls-2 {
        fill: url(#Degradado_sin_nombre_109-2);
      }
    </style>
    <linearGradient id="Degradado_sin_nombre_109" data-name="Degradado sin nombre 109" x1="146.75" y1="71.16" x2="353.25" y2="428.84" gradientUnits="userSpaceOnUse">
      <stop offset="0" stop-color="#8ab53a"/>
      <stop offset=".5" stop-color="#fad860"/>
      <stop offset="1" stop-color="#cc8c37"/>
    </linearGradient>
    <linearGradient id="Degradado_sin_nombre_109-2" data-name="Degradado sin nombre 109" x1="250" y1="129.08" x2="250" y2="386.29" xlink:href="#Degradado_sin_nombre_109"/>
  </defs>
  <path class="cls-1" d="M354.98,93.14c28.61,0,51.88,23.28,51.88,51.88v209.95c0,28.61-23.27,51.88-51.88,51.88h-209.95c-28.61,0-51.88-23.28-51.88-51.88v-209.95c0-28.61,23.28-51.88,51.88-51.88h209.95M354.98,81.87h-209.95c-34.74,0-63.16,28.42-63.16,63.16v209.95c0,34.74,28.42,63.16,63.16,63.16h209.95c34.74,0,63.16-28.42,63.16-63.16v-209.95c0-34.74-28.42-63.16-63.16-63.16h0Z"/>
  <path class="cls-2" d="M293.51,345.58s.03,0,0,0c0-14.28,0-28.31,0-42.34,0-5.6-.76-11.06-2.73-16.33-1.47-3.92-3.59-7.43-6.97-10.58,4.86-.86,9.43-1.56,13.94-2.49,6.84-1.4,13.43-3.56,19.69-6.7,12-6.02,20.96-15.03,25.88-27.55,6.85-17.45,8.56-35.38,3.33-53.63-1.97-6.86-5.45-12.99-10.08-18.43-1.04-1.23-1.22-2.16-.7-3.73,3.88-11.84,2.17-23.38-2.07-34.77-.52-1.4-1.5-1.49-2.66-1.52-5.27-.1-10.24,1.3-15.11,3.09-7.18,2.64-13.88,6.24-20.32,10.34-1.42.91-2.66,1.21-4.41.75-19.85-5.19-39.92-5.27-59.9-1.33-7.04,1.39-12.73,1.07-18.88-3.04-7.42-4.96-15.82-8.23-24.81-9.57-1.47-.22-2.6-.37-3.49-.39l-2.75.98c-.69.82-1.17,2.22-1.88,4.49-3.28,10.52-3.49,21.11-.59,31.72.43,1.56.21,2.58-.82,3.8-8.76,10.32-12.83,22.37-13.03,35.83-.16,10.7.87,21.25,4.26,31.46,6.76,20.38,21.43,32.07,41.6,37.67,6.33,1.76,12.79,2.91,19.85,3.68-1.97,2.15-3.66,3.97-4.89,6.15-1.92,3.4-3.16,7.05-3.6,10.9-.18,1.57-.83,2.27-2.19,2.83-16.58,6.75-31.24,2.1-40.84-12.96-4.55-7.14-10.73-12.02-19.18-13.7-2.62-.52-5.26-.59-7.81.34-2.23.81-2.63,2.23-1.21,4.15,1.02,1.38,2.34,2.48,3.78,3.36,8.32,5.08,13.56,12.7,17.23,21.42,5.63,13.38,16.03,19.62,29.99,20.77,6.32.52,12.59-.15,18.91-1.58,0,8.71-.16,18.37-.16,26.93,0,0,.42,27.07,36.04,27.07s36.59-27.08,36.59-27.08Z"/>
</svg>